PathFileType	4	(X/Y/Z)	/home/utkubuntu/opensim/opensim_mycode/release_code/bioimitation/imitation_envs/data/02905/02905_PRE/experimental_data/task.trc
DataRate	CameraRate	NumFrames	NumMarkers	Units	OrigDataRate	OrigDataStartFrame	OrigNumFrames
100.000000	100.000000	4	53	mm	100.000000	304	406
Frame#	Time	C7			CLAV			LANK			LASI			LBHD			LELB			LFHD			LFIN			LFMH			LHEE			LKNE			LKNI			LMED			LMET			LMIF			LPSI			LSHO			LTAD			LTHAP			LTHI			LTIAD			LTIB			LTOE			LTTU			LWRA			LWRB			RANK			RASI			RBAK			RBHD			RELB			RFHD			RFIN			RFMH			RHEE			RKNE			RKNI			RMED			RMET			RMIF			RPSI			RSHO			RTAD			RTHAP			RTHI			RTIAD			RTIB			RTOE			RTTU			RWRA			RWRB			STRN			T10			
		X1	Y1	Z1	X2	Y2	Z2	X3	Y3	Z3	X4	Y4	Z4	X5	Y5	Z5	X6	Y6	Z6	X7	Y7	Z7	X8	Y8	Z8	X9	Y9	Z9	X10	Y10	Z10	X11	Y11	Z11	X12	Y12	Z12	X13	Y13	Z13	X14	Y14	Z14	X15	Y15	Z15	X16	Y16	Z16	X17	Y17	Z17	X18	Y18	Z18	X19	Y19	Z19	X20	Y20	Z20	X21	Y21	Z21	X22	Y22	Z22	X23	Y23	Z23	X24	Y24	Z24	X25	Y25	Z25	X26	Y26	Z26	X27	Y27	Z27	X28	Y28	Z28	X29	Y29	Z29	X30	Y30	Z30	X31	Y31	Z31	X32	Y32	Z32	X33	Y33	Z33	X34	Y34	Z34	X35	Y35	Z35	X36	Y36	Z36	X37	Y37	Z37	X38	Y38	Z38	X39	Y39	Z39	X40	Y40	Z40	X41	Y41	Z41	X42	Y42	Z42	X43	Y43	Z43	X44	Y44	Z44	X45	Y45	Z45	X46	Y46	Z46	X47	Y47	Z47	X48	Y48	Z48	X49	Y49	Z49	X50	Y50	Z50	X51	Y51	Z51	X52	Y52	Z52	X53	Y53	Z53	

305	3.04	1835.204956054688	1436.7490234375	-314.6940002441403	1935.859008789062	1339.694946289062	-312.1470031738278	1962.743041992188	73.38700103759774	-370.5929870605469	1943.39404296875	943.0369873046876	-404.4030151367185	1886.923950195312	1541.609985351562	-393.316009521484	1787.079956054688	1035.5400390625	-506.7770080566404	2031.574951171875	1600.482055664062	-371.5539855957028	1798.985961914062	749.1270141601564	-499.8749999999998	2111.8740234375	35.47499847412116	-315.4259948730469	1917.27294921875	35.31299972534187	-332.7990112304688	1974.961059570312	464.7319946289064	-415.5209960937499	1986.52294921875	462.2040100097657	-299.4819946289061	1978.509033203125	87.53700256347663	-291.8999938964844	2070.055908203125	25.94799995422372	-403.7839965820312	2046.089965820312	72.20800018310554	-346.989013671875	1778.968994140625	948.7529907226564	-341.7850036621091	1853.692016601562	1356.734985351562	-480.4790039062497	2035.675048828125	549.7069702148439	-359.6640014648436	2012.099975585938	714.3460083007814	-369.2749938964842	1960.808959960938	561.0219726562501	-467.584991455078	2011.889038085938	209.0630035400391	-342.5849914550781	1958.56103515625	286.936004638672	-453.6759948730468	2098.717041015625	38.63999938964852	-360.2229919433594	2027.385009765625	389.0559997558594	-357.1449890136718	1829.305053710938	795.7479858398439	-464.053985595703	1777.530029296875	801.2410278320314	-510.9020080566405	1545.052001953125	208.9210052490235	-170.6410064697265	1936.2060546875	931.0659790039062	-161.2899932861326	1782.838989257812	1326.806030273438	-178.8309936523435	1881.447021484375	1531.2900390625	-232.2299957275387	1783.159057617188	1084.239013671875	-50.4420013427732	2021.862060546875	1589.836059570312	-247.5789947509762	1896.053955078125	801.8200073242188	-5.705999851226629	1573.875	66.39600372314459	-230.4709930419922	1490.576049804688	238.0630035400391	-212.8269958496093	1863.191040039062	450.1499938964844	-135.1820068359374	1877.927001953125	436.2799987792969	-254.5700073242187	1568.464965820312	208.6009979248047	-250.4510040283203	1537.199951171875	88.97100067138675	-152.2409973144531	1578.739990234375	119.1880035400391	-196.7539978027343	1776.953979492188	948.8579711914062	-236.2299957275389	1872.640014648438	1377.7490234375	-129.5420074462887	1956.420043945312	518.2999877929688	-173.7570037841796	1969.901000976562	692.4199829101562	-164.5050048828124	1874.108032226562	559.051025390625	-86.98200225830065	1730.661987304688	285.7510070800782	-192.2070007324218	1706.842041015625	354.5559997558594	-94.03800201416007	1567.557006835938	72.61799621582036	-190.7539978027343	1858.178955078125	361.0660095214844	-181.9109954833984	1899.913940429688	853.1329956054688	-56.33800125122051	1846.921997070312	841.885986328125	-11.46700000762921	1963.718994140625	1184.661010742188	-303.1619873046872	1755.635009765625	1137.5419921875	-290.6730041503904	
306	3.05	1846.046997070312	1437.681030273438	-315.9570007324215	1946.386962890625	1340.661987304688	-312.9230041503903	1962.760986328125	73.40100097656259	-370.5339965820312	1953.904052734375	943.7139892578126	-404.721984863281	1897.655029296875	1542.614013671875	-394.4249877929684	1802.088989257812	1035.326049804688	-509.5390014648435	2042.348022460938	1601.219970703125	-372.5729980468747	1818.413940429688	749.1770019531251	-504.0809936523436	2111.873046875	35.35200119018562	-315.4419860839844	1917.517944335938	35.3190002441407	-332.7980041503906	1978.909057617188	464.5599975585939	-416.2330017089843	1991.527954101562	462.0190124511719	-300.240997314453	1978.651977539062	87.53600311279304	-291.8630065917969	2069.99609375	25.87299919128427	-403.9289855957031	2046.150024414062	72.10399627685554	-346.9670104980469	1789.129028320312	949.7290039062501	-343.252990722656	1864.746948242188	1357.505981445312	-481.5520019531247	2041.791015625	548.8809814453126	-361.3829956054686	2020.359008789062	713.7000122070314	-371.7690124511717	1965	561.0330200195314	-468.2239990234374	2013.43603515625	208.5679931640626	-343.0459899902343	1959.7900390625	286.8670043945314	-454.1560058593749	2098.7939453125	38.52199935913094	-360.2260131835938	2031.130004882812	388.3420104980469	-358.2420043945311	1848.01904296875	796.1630249023439	-467.9379882812498	1796.3740234375	800.9810180664064	-515.086975097656	1564.989013671875	214.5390014648438	-171.4089965820312	1945.31298828125	931.4810180664062	-161.4539947509764	1792.883056640625	1327.796020507812	-180.1950073242185	1891.946044921875	1532.432983398438	-233.3249969482418	1792	1085.109008789062	-52.54499816894507	2032.482055664062	1590.698974609375	-248.5939941406247	1900.85205078125	801.10498046875	-7.703999996185125	1591.836059570312	70.04399871826178	-227.3580017089843	1510.805053710938	243.5119934082032	-214.4949951171874	1885.576049804688	450.5260009765626	-136.4510040283202	1898.932983398438	438.1610107421876	-256.1619873046874	1588.365966796875	212.7519989013672	-251.2709960937499	1556.109008789062	95.95400238037112	-149.5679931640625	1597.782958984375	124.1949996948243	-195.4309997558593	1786.635009765625	948.5980224609375	-237.7449951171873	1882.607055664062	1378.671997070312	-130.4779968261716	1976.06201171875	520.448974609375	-175.5559997558593	1984.2939453125	694.7420043945312	-165.0440063476561	1890.781982421875	559.0029907226562	-88.48899841308581	1751.787963867188	288.2760009765626	-194.4199981689453	1730.806030273438	354.2990112304688	-94.56300354003898	1586.16796875	77.76699829101567	-187.6329956054687	1880.319946289062	361.9219970703126	-184.720001220703	1905.68994140625	852.593017578125	-58.09299850463848	1852.336059570312	842.0469970703125	-13.44200038909893	1974.192993164062	1185.401977539062	-303.7239990234372	1766.035034179688	1138.525024414062	-292.0870056152341	
307	3.06	1856.699951171875	1438.682983398438	-317.108001708984	1956.7900390625	1341.578979492188	-313.5849914550778	1962.85498046875	73.43000030517587	-370.5090026855469	1964.160034179688	944.4609985351564	-405.0979919433591	1908.135009765625	1543.618041992188	-395.4169921874997	1817.344970703125	1035.2060546875	-512.3170166015623	2053.037109375	1601.97998046875	-373.4270019531247	1838.10498046875	749.4130249023439	-508.3930053710936	2111.881103515625	35.23799896240241	-315.4580078125	1917.943969726562	35.2929992675782	-332.8489990234375	1982.821044921875	464.467010498047	-416.8200073242186	1995.880004882812	461.7390136718751	-300.8919982910155	1978.758056640625	87.55999755859382	-291.8569946289062	2069.958984375	25.80299949646005	-404.06201171875	2046.215942382812	72.00800323486335	-346.9559936523438	1799.119995117188	950.8510131835939	-344.5140075683591	1875.81298828125	1358.3330078125	-482.5580139160153	2047.324951171875	548.1129760742189	-362.6610107421874	2028.181030273438	713.4190063476564	-373.5520019531248	1969.838989257812	561.2620239257814	-468.803985595703	2014.785034179688	208.134994506836	-343.1690063476562	1962.2939453125	286.8169860839845	-454.6019897460937	2098.87890625	38.40999984741219	-360.2420043945312	2034.529052734375	387.7409973144532	-358.7969970703124	1866.906982421875	796.6179809570314	-471.7470092773436	1815.462036132812	800.8519897460939	-519.211975097656	1585.734985351562	219.1060028076172	-172.3430023193359	1954.166015625	932.0380249023438	-161.6649932861326	1802.740966796875	1328.838989257812	-181.5460052490232	1902.386962890625	1533.490966796875	-234.3200073242184	1800.864013671875	1085.97900390625	-54.50600051879859	2043.008056640625	1591.531005859375	-249.4539947509762	1905.723022460938	800.4039916992188	-9.798000335693182	1612.465942382812	73.1129989624024	-224.447998046875	1531.5	247.2830047607422	-216.2510070800781	1907.781982421875	451.5729980468751	-137.7599945068358	1920.058959960938	440.2630004882813	-257.626007080078	1609.136962890625	216.0359954833985	-252.2510070800781	1577.203979492188	101.6689987182617	-147.2109985351562	1618.640014648438	128.5260009765626	-194.2749938964843	1796.213989257812	948.5549926757812	-239.1100006103514	1892.35302734375	1379.609985351562	-131.3619995117184	1995.759033203125	523.22998046875	-177.3860015869139	1998.569946289062	697.489013671875	-166.240997314453	1907.593017578125	559.60400390625	-89.9899978637694	1773.345947265625	290.6610107421876	-196.3399963378906	1754.183959960938	354.9339904785156	-95.42400360107413	1607.275024414062	82.13099670410161	-184.7839965820312	1902.577026367188	363.2529907226563	-187.1190032958984	1911.432006835938	852.0689697265625	-59.91400146484356	1857.864990234375	842.22802734375	-15.34799957275372	1984.47900390625	1186.10205078125	-304.1220092773435	1776.287963867188	1139.567016601562	-293.3729858398435	
308	3.07	1867.18798828125	1439.722045898438	-318.1690063476559	1967.079956054688	1342.467041015625	-314.1419982910153	1963.006958007812	73.48200225830087	-370.4949951171875	1974.172973632812	945.2689819335939	-405.6239929199216	1918.27099609375	1544.637939453125	-396.2900085449215	1832.844970703125	1035.204956054688	-515.0800170898435	2063.655029296875	1602.741943359375	-374.1300048828122	1858.1689453125	749.8900146484376	-512.8229980468749	2111.906982421875	35.13199996948249	-315.47900390625	1918.41796875	35.27799987792976	-332.9240112304688	1986.758056640625	464.4270019531251	-417.2869873046874	1999.557006835938	461.4450073242188	-301.4100036621093	1978.862060546875	87.60700225830085	-291.8580017089844	2069.943115234375	25.74099922180185	-404.1849975585938	2046.305053710938	71.92400360107429	-346.9469909667969	1808.974975585938	952.0729980468751	-345.5140075683591	1886.85498046875	1359.22705078125	-483.4939880371091	2052.33203125	547.3629760742189	-363.459991455078	2035.673950195312	713.3449707031251	-374.553985595703	1975.198974609375	561.6290283203126	-469.3489990234374	2015.97900390625	207.7460021972657	-343.0580139160156	1965.79296875	286.7780151367189	-454.9670104980468	2098.97509765625	38.30300140380867	-360.2699890136719	2037.673950195312	387.2359924316407	-358.8739929199218	1885.862060546875	797.1170043945314	-475.3959960937498	1834.765991210938	800.8920288085939	-523.2680053710935	1607.218017578125	222.4649963378907	-173.3329925537109	1963.015014648438	932.823974609375	-161.9980010986326	1812.43505859375	1329.923950195312	-182.8609924316403	1912.76904296875	1534.485961914062	-235.2089996337887	1809.717041015625	1086.868041992188	-56.3530006408689	2053.4580078125	1592.33203125	-250.1710052490231	1910.713012695312	799.7750244140625	-11.95100021362287	1635.43505859375	75.50099945068364	-222.0229949951172	1552.588989257812	249.4409942626954	-217.8229980468749	1929.64599609375	453.2449951171876	-139.1230010986327	1941.239013671875	442.4710083007813	-258.9920043945311	1630.657958984375	218.4270019531251	-253.3209991455078	1600.223999023438	105.916000366211	-145.3560028076172	1641.057983398438	132.0319976806641	-193.458999633789	1805.73095703125	948.802978515625	-240.2619934082029	1901.89404296875	1380.572021484375	-132.1950073242184	2015.495971679688	526.551025390625	-179.1399993896483	2012.81201171875	700.5999755859375	-168.001998901367	1924.784057617188	560.7540283203125	-91.4649963378905	1795.233032226562	292.8500061035157	-197.8110046386718	1776.72802734375	356.8190002441406	-96.62899780273429	1630.489990234375	85.54599761962895	-182.4909973144531	1924.829956054688	364.9960021972657	-188.970001220703	1917.173950195312	851.6060180664062	-61.79499816894512	1863.552001953125	842.4749755859375	-17.179000854492	1994.586059570312	1186.822998046875	-304.3909912109372	1786.39404296875	1140.654052734375	-294.5270080566404	
